<mxfile host="app.diagrams.net" modified="2023-06-18T11:21:13.499Z" agent="Mozilla/5.0 (Windows NT 10.0; Win64; x64) AppleWebKit/537.36 (KHTML, like Gecko) Chrome/114.0.0.0 Safari/537.36" etag="aUsMAHjWnaekjxSKqbWF" version="21.4.0" type="device">
  <diagram id="dX7Dphyso45SB9-RoEhv" name="Page-1">
    <mxGraphModel dx="1050" dy="515" grid="1" gridSize="10" guides="1" tooltips="1" connect="1" arrows="1" fold="1" page="1" pageScale="1" pageWidth="827" pageHeight="1169" math="0" shadow="0">
      <root>
        <mxCell id="0" />
        <mxCell id="1" parent="0" />
        <mxCell id="nfxZPmU7g6QgWNAvG-ER-2" value="" style="whiteSpace=wrap;html=1;aspect=fixed;strokeWidth=5;strokeColor=#FFFFFF;fillColor=#000000;" parent="1" vertex="1">
          <mxGeometry x="210" y="90" width="600" height="600" as="geometry" />
        </mxCell>
        <mxCell id="8b6ggLF4gSHIukh4vJdm-18" value="&lt;font face=&quot;xkcd&quot;&gt;&lt;span style=&quot;font-size: 40px&quot;&gt;Father&#39;s day&lt;/span&gt;&lt;br&gt;&lt;/font&gt;" style="text;html=1;strokeColor=none;fillColor=none;align=center;verticalAlign=middle;whiteSpace=wrap;rounded=0;fontColor=#FFFFFF;" parent="1" vertex="1">
          <mxGeometry x="215" y="130" width="590" height="20" as="geometry" />
        </mxCell>
        <mxCell id="8b6ggLF4gSHIukh4vJdm-24" value="&lt;font face=&quot;xkcd&quot;&gt;&lt;span style=&quot;font-size: 18px&quot;&gt;wishes&lt;/span&gt;&lt;br&gt;&lt;/font&gt;" style="text;html=1;strokeColor=none;fillColor=none;align=center;verticalAlign=middle;whiteSpace=wrap;rounded=0;fontColor=#FFFFFF;" parent="1" vertex="1">
          <mxGeometry x="210" y="170" width="600" height="20" as="geometry" />
        </mxCell>
        <mxCell id="8b6ggLF4gSHIukh4vJdm-30" value="" style="endArrow=none;dashed=1;html=1;strokeWidth=2;labelBackgroundColor=none;fontColor=#FFFFFF;strokeColor=#FFFFFF;" parent="1" edge="1">
          <mxGeometry width="50" height="50" relative="1" as="geometry">
            <mxPoint x="796.5" y="210" as="sourcePoint" />
            <mxPoint x="221.5" y="210" as="targetPoint" />
          </mxGeometry>
        </mxCell>
        <mxCell id="k-dpR7HA_-HZ3Fbqk2lw-16" value="" style="endArrow=none;dashed=1;html=1;strokeWidth=2;labelBackgroundColor=none;fontColor=#FFFFFF;strokeColor=#FFFFFF;" parent="1" edge="1">
          <mxGeometry width="50" height="50" relative="1" as="geometry">
            <mxPoint x="797.5" y="590" as="sourcePoint" />
            <mxPoint x="222.5" y="590" as="targetPoint" />
          </mxGeometry>
        </mxCell>
        <mxCell id="k-dpR7HA_-HZ3Fbqk2lw-17" value="&lt;font face=&quot;xkcd&quot;&gt;&lt;span style=&quot;font-size: 14px&quot;&gt;side note&lt;/span&gt;&lt;/font&gt;&lt;font face=&quot;xkcd&quot;&gt;&lt;br&gt;Just getting the content back up&lt;br&gt;to positively&amp;nbsp;skew the number of online posts for father&#39;s day wishes&lt;br&gt;&lt;/font&gt;" style="text;html=1;strokeColor=none;fillColor=none;align=center;verticalAlign=middle;whiteSpace=wrap;rounded=0;fontColor=#FFFFFF;" parent="1" vertex="1">
          <mxGeometry x="220" y="600" width="580" height="70" as="geometry" />
        </mxCell>
        <mxCell id="euaHSMH8fYii958cPEId-22" style="edgeStyle=orthogonalEdgeStyle;rounded=0;orthogonalLoop=1;jettySize=auto;html=1;exitX=0.5;exitY=1;exitDx=0;exitDy=0;strokeWidth=2;" parent="1" edge="1">
          <mxGeometry relative="1" as="geometry">
            <mxPoint x="661" y="451" as="sourcePoint" />
            <mxPoint x="661" y="451" as="targetPoint" />
          </mxGeometry>
        </mxCell>
        <mxCell id="pKVuHFSoDqtFi99w7tCS-15" value="&lt;font face=&quot;xkcd&quot;&gt;&lt;span style=&quot;font-size: 14px&quot;&gt;splash the watermark!&lt;br&gt;&lt;/span&gt;#thecontentwriter #sbenstewart&lt;br&gt;&lt;/font&gt;" style="text;html=1;strokeColor=none;fillColor=none;align=center;verticalAlign=middle;whiteSpace=wrap;rounded=0;rotation=-90;fontColor=#FFFFFF;" parent="1" vertex="1">
          <mxGeometry x="630" y="388" width="290" height="20" as="geometry" />
        </mxCell>
        <mxCell id="b0y0ySVDOG4qLIN05PSK-2" value="&lt;div style=&quot;text-align: justify; font-size: 39px;&quot;&gt;&lt;font style=&quot;font-size: 39px;&quot; face=&quot;xkcd&quot;&gt;thanks&lt;/font&gt;&lt;/div&gt;&lt;div style=&quot;text-align: justify; font-size: 13px;&quot;&gt;&lt;font style=&quot;font-size: 13px;&quot; face=&quot;xkcd&quot;&gt;to be used by those are are wishing&lt;/font&gt;&lt;/div&gt;&lt;div style=&quot;text-align: justify; font-size: 13px;&quot;&gt;&lt;font style=&quot;font-size: 13px;&quot; face=&quot;xkcd&quot;&gt;as well as by those who are being wished&lt;/font&gt;&lt;/div&gt;" style="text;html=1;strokeColor=none;fillColor=none;align=center;verticalAlign=middle;whiteSpace=wrap;rounded=0;fontColor=#FFFFFF;" parent="1" vertex="1">
          <mxGeometry x="310" y="304" width="400" height="172" as="geometry" />
        </mxCell>
      </root>
    </mxGraphModel>
  </diagram>
</mxfile>
